<?xml version="1.0" standalone="no"?>
<!DOCTYPE svg PUBLIC "-//W3C//DTD SVG 20010904//EN"
 "http://www.w3.org/TR/2001/REC-SVG-20010904/DTD/svg10.dtd">
<svg version="1.0" xmlns="http://www.w3.org/2000/svg"
 width="512.000000pt" height="512.000000pt" viewBox="0 0 512.000000 512.000000"
 preserveAspectRatio="xMidYMid meet">

<g transform="translate(0.000000,512.000000) scale(0.100000,-0.100000)"
fill="#f4f0ea" stroke="none">
<path d="M1188 4189 c-20 -6 -52 -25 -72 -42 -43 -40 -924 -1230 -942 -1274
-28 -66 -6 -162 47 -209 63 -55 288 -210 324 -222 70 -24 151 0 209 64 l31 34
58 -98 c32 -54 103 -158 157 -230 l99 -132 -25 -48 c-23 -42 -25 -56 -22 -124
4 -61 11 -90 37 -142 59 -120 184 -206 300 -206 48 0 48 0 60 -43 28 -96 105
-188 192 -233 42 -21 67 -27 148 -38 17 -2 27 -13 36 -38 48 -141 166 -235
307 -246 84 -6 142 10 218 59 l58 37 131 -44 c263 -88 469 -109 607 -64 90 30
167 104 209 201 l28 67 121 4 c106 4 129 8 183 32 77 35 134 94 174 181 30 63
50 153 42 185 -4 15 6 18 69 23 144 11 232 56 295 150 82 122 99 252 47 367
-16 36 -48 89 -72 118 l-44 54 22 54 c21 51 94 164 107 164 3 0 22 -18 41 -40
56 -66 125 -91 200 -71 42 12 268 166 334 229 46 44 62 88 56 157 -4 51 -14
65 -476 686 -517 697 -504 682 -606 682 -65 0 -84 -11 -253 -133 -142 -103
-177 -142 -188 -209 -3 -20 -1 -51 4 -68 9 -32 9 -33 -31 -44 -123 -33 -202
-41 -428 -43 -166 -2 -262 -8 -327 -20 -87 -16 -99 -16 -185 0 -67 12 -160 18
-328 19 -129 2 -264 8 -300 14 -99 18 -171 41 -165 52 12 19 6 118 -8 146 -9
15 -30 42 -49 59 -43 40 -244 186 -284 207 -42 22 -101 28 -146 16z m205 -251
c130 -94 140 -104 126 -129 -17 -33 -881 -1194 -897 -1207 -9 -7 -21 -11 -28
-8 -19 7 -251 176 -265 192 -10 13 -10 20 1 37 37 61 892 1206 903 1210 17 6
33 -3 160 -95z m2953 -513 c247 -333 449 -613 449 -623 0 -26 -263 -219 -287
-209 -7 2 -207 265 -443 583 -236 319 -440 593 -453 611 -15 21 -21 37 -15 47
14 25 257 195 279 196 16 0 123 -138 470 -605z m-2691 165 c135 -39 243 -52
415 -52 l164 0 -99 -54 c-97 -52 -306 -144 -452 -199 -107 -39 -153 -98 -153
-193 0 -96 98 -231 212 -293 61 -33 66 -34 173 -33 107 0 113 1 245 51 190 72
269 88 420 87 249 -2 397 -70 734 -337 202 -160 274 -210 380 -264 108 -54
215 -83 312 -83 70 0 73 -1 104 -37 72 -82 88 -170 46 -258 -42 -92 -103 -125
-229 -125 -129 0 -312 47 -566 146 -121 47 -122 47 -156 31 -67 -32 -59 -108
15 -144 75 -37 251 -101 371 -134 63 -17 121 -35 129 -39 22 -10 24 -86 4
-138 -23 -61 -67 -108 -120 -128 -36 -14 -65 -16 -157 -11 -134 7 -268 41
-467 118 -166 64 -202 70 -236 38 -27 -25 -32 -67 -11 -99 14 -24 208 -103
372 -151 61 -18 111 -34 113 -35 9 -5 -33 -83 -60 -111 -43 -44 -88 -58 -188
-56 -97 1 -191 19 -336 64 l-102 32 25 50 c97 193 -39 435 -256 454 l-59 6 -5
38 c-12 94 -90 193 -187 238 -44 20 -71 25 -133 26 -75 0 -78 1 -83 25 -22
105 -96 201 -187 241 -41 19 -70 24 -137 24 -82 0 -89 -2 -181 -47 -52 -27
-98 -48 -102 -48 -23 0 -217 274 -291 411 l-46 85 342 462 c189 254 345 462
348 462 3 0 37 -9 75 -20z m2227 -435 c184 -247 337 -456 342 -463 5 -8 -10
-32 -43 -68 -47 -51 -131 -201 -131 -234 0 -23 -135 -6 -225 29 -98 38 -198
103 -397 261 -84 67 -196 150 -249 185 -343 231 -670 261 -1081 99 -177 -69
-287 -56 -364 44 -41 54 -52 89 -33 106 8 7 73 35 144 61 72 27 226 97 343
157 346 175 438 198 807 203 249 3 348 14 470 54 33 10 65 18 72 18 6 -1 162
-204 345 -452z m-2296 -1046 c54 -26 87 -76 88 -136 1 -35 -4 -49 -19 -59
-106 -75 -153 -115 -179 -152 l-31 -44 -57 4 c-45 3 -66 11 -95 34 -46 38 -75
92 -81 153 -4 46 -3 48 46 93 63 56 204 128 251 128 19 0 54 -9 77 -21z m391
-284 c72 -30 104 -78 105 -154 0 -64 -19 -98 -93 -165 -86 -78 -135 -99 -209
-94 -48 3 -67 10 -97 35 -48 38 -81 97 -89 157 -7 46 -6 48 43 95 60 58 219
141 269 141 19 0 51 -7 71 -15z m359 -311 c70 -33 104 -102 89 -181 -8 -47
-116 -158 -186 -191 -92 -45 -193 -15 -244 72 -35 59 -32 76 20 109 62 39 141
112 176 163 27 40 34 44 70 44 23 0 56 -7 75 -16z"/>
</g>
</svg>
